REM DIRINDEX 1\2\4,1\2\5,1\2\6,1\3\7,1\3\8
REM DIRNAME cjc128,folder01,folder02,folder03,folder04,folder05,folder06,folder07
TITLE ""
FILE "017_Lesson 14_Output_Stage.mp3" MP3
  TRACK 01 AUDIO
    TITLE "0:"
    INDEX 01 00:00:00
  TRACK 02 AUDIO
    TITLE "6:cjc128_0915"
    INDEX 01 00:00:09
  TRACK 03 AUDIO
    TITLE "0:"
    INDEX 01 00:03:02
  TRACK 04 AUDIO
    TITLE "6:cjc128_0916"
    INDEX 01 00:03:39
  TRACK 05 AUDIO
    TITLE "0:"
    INDEX 01 00:04:62
  TRACK 06 AUDIO
    TITLE "4:cjc128_0917"
    INDEX 01 00:05:46
  TRACK 07 AUDIO
    TITLE "0:"
    INDEX 01 00:09:36
  TRACK 08 AUDIO
    TITLE "5:cjc128_0918"
    INDEX 01 00:13:43
  TRACK 09 AUDIO
    TITLE "0:"
    INDEX 01 00:17:21
  TRACK 10 AUDIO
    TITLE "6:cjc128_0919"
    INDEX 01 00:18:01
  TRACK 11 AUDIO
    TITLE "0:"
    INDEX 01 00:19:63
  TRACK 12 AUDIO
    TITLE "4:cjc128_0920"
    INDEX 01 00:20:39
  TRACK 13 AUDIO
    TITLE "0:"
    INDEX 01 00:22:66
  TRACK 14 AUDIO
    TITLE "5:cjc128_0921"
    INDEX 01 00:25:46
  TRACK 15 AUDIO
    TITLE "0:"
    INDEX 01 00:27:65
  TRACK 16 AUDIO
    TITLE "6:cjc128_0922"
    INDEX 01 00:28:47
  TRACK 17 AUDIO
    TITLE "0:"
    INDEX 01 00:30:44
  TRACK 18 AUDIO
    TITLE "4:cjc128_0923"
    INDEX 01 00:31:26
  TRACK 19 AUDIO
    TITLE "0:"
    INDEX 01 00:34:02
  TRACK 20 AUDIO
    TITLE "5:cjc128_0924"
    INDEX 01 00:37:36
  TRACK 21 AUDIO
    TITLE "0:"
    INDEX 01 00:40:40
  TRACK 22 AUDIO
    TITLE "6:cjc128_0925"
    INDEX 01 00:41:22
  TRACK 23 AUDIO
    TITLE "0:"
    INDEX 01 00:42:74
  TRACK 24 AUDIO
    TITLE "4:cjc128_0926"
    INDEX 01 00:43:54
  TRACK 25 AUDIO
    TITLE "0:"
    INDEX 01 00:46:39
  TRACK 26 AUDIO
    TITLE "5:cjc128_0927"
    INDEX 01 00:49:33
  TRACK 27 AUDIO
    TITLE "0:"
    INDEX 01 00:51:60
  TRACK 28 AUDIO
    TITLE "6:cjc128_0928"
    INDEX 01 00:52:43
  TRACK 29 AUDIO
    TITLE "0:"
    INDEX 01 00:54:29
  TRACK 30 AUDIO
    TITLE "4:cjc128_0929"
    INDEX 01 00:55:10
  TRACK 31 AUDIO
    TITLE "0:"
    INDEX 01 00:58:40
  TRACK 32 AUDIO
    TITLE "5:cjc128_0930"
    INDEX 01 01:02:18
  TRACK 33 AUDIO
    TITLE "0:"
    INDEX 01 01:05:17
  TRACK 34 AUDIO
    TITLE "6:cjc128_0931"
    INDEX 01 01:06:08
  TRACK 35 AUDIO
    TITLE "0:"
    INDEX 01 01:07:72
  TRACK 36 AUDIO
    TITLE "4:cjc128_0932"
    INDEX 01 01:08:60
  TRACK 37 AUDIO
    TITLE "0:"
    INDEX 01 01:12:21
  TRACK 38 AUDIO
    TITLE "5:cjc128_0933"
    INDEX 01 01:16:03
  TRACK 39 AUDIO
    TITLE "0:"
    INDEX 01 01:19:09
  TRACK 40 AUDIO
    TITLE "6:cjc128_0934"
    INDEX 01 01:19:68
  TRACK 41 AUDIO
    TITLE "0:"
    INDEX 01 01:21:45
  TRACK 42 AUDIO
    TITLE "4:cjc128_0935"
    INDEX 01 01:22:19
  TRACK 43 AUDIO
    TITLE "0:"
    INDEX 01 01:24:36
  TRACK 44 AUDIO
    TITLE "5:cjc128_0936"
    INDEX 01 01:26:54
  TRACK 45 AUDIO
    TITLE "0:"
    INDEX 01 01:28:51
  TRACK 46 AUDIO
    TITLE "6:cjc128_0937"
    INDEX 01 01:29:25
  TRACK 47 AUDIO
    TITLE "0:"
    INDEX 01 01:31:12
  TRACK 48 AUDIO
    TITLE "4:cjc128_0938"
    INDEX 01 01:31:69
  TRACK 49 AUDIO
    TITLE "0:"
    INDEX 01 01:34:18
  TRACK 50 AUDIO
    TITLE "5:cjc128_0939"
    INDEX 01 01:37:05
  TRACK 51 AUDIO
    TITLE "0:"
    INDEX 01 01:39:14
  TRACK 52 AUDIO
    TITLE "6:cjc128_0940"
    INDEX 01 01:39:70
  TRACK 53 AUDIO
    TITLE "0:"
    INDEX 01 01:41:38
  TRACK 54 AUDIO
    TITLE "4:cjc128_0941"
    INDEX 01 01:42:22
  TRACK 55 AUDIO
    TITLE "0:"
    INDEX 01 01:44:34
  TRACK 56 AUDIO
    TITLE "5:cjc128_0942"
    INDEX 01 01:46:72
  TRACK 57 AUDIO
    TITLE "0:"
    INDEX 01 01:48:71
  TRACK 58 AUDIO
    TITLE "6:cjc128_0943"
    INDEX 01 01:49:51
  TRACK 59 AUDIO
    TITLE "0:"
    INDEX 01 01:51:36
  TRACK 60 AUDIO
    TITLE "4:cjc128_0944"
    INDEX 01 01:52:08
  TRACK 61 AUDIO
    TITLE "0:"
    INDEX 01 01:54:72
  TRACK 62 AUDIO
    TITLE "5:cjc128_0945"
    INDEX 01 01:58:38
  TRACK 63 AUDIO
    TITLE "0:"
    INDEX 01 02:01:45
  TRACK 64 AUDIO
    TITLE "6:cjc128_0946"
    INDEX 01 02:02:24
  TRACK 65 AUDIO
    TITLE "0:"
    INDEX 01 02:03:69
  TRACK 66 AUDIO
    TITLE "4:cjc128_0947"
    INDEX 01 02:04:53
  TRACK 67 AUDIO
    TITLE "0:"
    INDEX 01 02:07:41
  TRACK 68 AUDIO
    TITLE "5:cjc128_0948"
    INDEX 01 02:10:24
  TRACK 69 AUDIO
    TITLE "0:"
    INDEX 01 02:12:29
  TRACK 70 AUDIO
    TITLE "6:cjc128_0949"
    INDEX 01 02:13:14
  TRACK 71 AUDIO
    TITLE "0:"
    INDEX 01 02:14:63
  TRACK 72 AUDIO
    TITLE "4:cjc128_0950"
    INDEX 01 02:15:43
  TRACK 73 AUDIO
    TITLE "0:"
    INDEX 01 02:18:35
  TRACK 74 AUDIO
    TITLE "5:cjc128_0951"
    INDEX 01 02:21:16
  TRACK 75 AUDIO
    TITLE "0:"
    INDEX 01 02:23:48
  TRACK 76 AUDIO
    TITLE "6:cjc128_0952"
    INDEX 01 02:24:26
  TRACK 77 AUDIO
    TITLE "0:"
    INDEX 01 02:26:21
  TRACK 78 AUDIO
    TITLE "4:cjc128_0953"
    INDEX 01 02:26:58
  TRACK 79 AUDIO
    TITLE "0:"
    INDEX 01 02:29:45
  TRACK 80 AUDIO
    TITLE "5:cjc128_0954"
    INDEX 01 02:32:18
  TRACK 81 AUDIO
    TITLE "0:"
    INDEX 01 02:34:28
  TRACK 82 AUDIO
    TITLE "6:cjc128_0955"
    INDEX 01 02:35:10
  TRACK 83 AUDIO
    TITLE "0:"
    INDEX 01 02:37:03
  TRACK 84 AUDIO
    TITLE "4:cjc128_0956"
    INDEX 01 02:37:58
  TRACK 85 AUDIO
    TITLE "0:"
    INDEX 01 02:41:60
  TRACK 86 AUDIO
    TITLE "5:cjc128_0957"
    INDEX 01 02:45:54
  TRACK 87 AUDIO
    TITLE "0:"
    INDEX 01 02:48:66
  TRACK 88 AUDIO
    TITLE "6:cjc128_0958"
    INDEX 01 02:49:55
  TRACK 89 AUDIO
    TITLE "0:"
    INDEX 01 02:51:40
  TRACK 90 AUDIO
    TITLE "4:cjc128_0959"
    INDEX 01 02:52:22
  TRACK 91 AUDIO
    TITLE "0:"
    INDEX 01 02:55:40
  TRACK 92 AUDIO
    TITLE "5:cjc128_0960"
    INDEX 01 02:58:68
  TRACK 93 AUDIO
    TITLE "0:"
    INDEX 01 03:01:70
  TRACK 94 AUDIO
    TITLE "6:cjc128_0961"
    INDEX 01 03:02:46
  TRACK 95 AUDIO
    TITLE "0:"
    INDEX 01 03:04:29
  TRACK 96 AUDIO
    TITLE "4:cjc128_0962"
    INDEX 01 03:05:09
  TRACK 97 AUDIO
    TITLE "0:"
    INDEX 01 03:08:17
  TRACK 98 AUDIO
    TITLE "5:cjc128_0963"
    INDEX 01 03:11:69
  TRACK 99 AUDIO
    TITLE "0:"
    INDEX 01 03:15:19
  TRACK 100 AUDIO
    TITLE "6:cjc128_0964"
    INDEX 01 03:15:53
  TRACK 101 AUDIO
    TITLE "0:"
    INDEX 01 03:17:44
  TRACK 102 AUDIO
    TITLE "4:cjc128_0965"
    INDEX 01 03:18:24
  TRACK 103 AUDIO
    TITLE "0:"
    INDEX 01 03:21:65
  TRACK 104 AUDIO
    TITLE "5:cjc128_0966"
    INDEX 01 03:26:45
  TRACK 105 AUDIO
    TITLE "0:"
    INDEX 01 03:30:52
  TRACK 106 AUDIO
    TITLE "6:cjc128_0967"
    INDEX 01 03:31:28
  TRACK 107 AUDIO
    TITLE "0:"
    INDEX 01 03:33:27
  TRACK 108 AUDIO
    TITLE "4:cjc128_0968"
    INDEX 01 03:34:07
  TRACK 109 AUDIO
    TITLE "0:"
    INDEX 01 03:37:27
  TRACK 110 AUDIO
    TITLE "5:cjc128_0969"
    INDEX 01 03:40:35
  TRACK 111 AUDIO
    TITLE "0:"
    INDEX 01 03:43:06
